<?xml version="1.0" encoding="utf-8"?>
<!-- Svg Vector Icons : http://www.onlinewebfonts.com/icon -->
<!DOCTYPE svg PUBLIC "-//W3C//DTD SVG 1.1//EN" "http://www.w3.org/Graphics/SVG/1.1/DTD/svg11.dtd">
<svg version="1.1" xmlns="http://www.w3.org/2000/svg" xmlns:xlink="http://www.w3.org/1999/xlink" x="0px" y="0px" viewBox="0 0 256 256" enable-background="new 0 0 256 256" xml:space="preserve">
<metadata> Svg Vector Icons : http://www.onlinewebfonts.com/icon </metadata>
<g><g><g><path fill="#000000" d="M22.6,25.1c-4.8,0.8-9.6,4.6-11.6,9.1c-0.7,1.7-1,3.1-1,6.1c0,3.4,0.2,4.3,1.3,6.6c2.4,4.8,6.9,8.1,12.6,9c4.5,0.7,11.4-2.6,13.9-6.6l1.2-2l5.4,0h5.4L50,128c0.1,80.7,0.1,80.7,1.1,82c2.3,3.1,2.4,3.2,14,3.4l10.6,0.2l1.7,3.4c4.4,8.8,12.9,14,22.8,14c6.8,0,12.6-2.3,17.5-7.1c2.4-2.3,5.3-6.6,6-9l0.6-1.6l18.3,0h18.3l1.8,3.7c6.2,12.9,22.6,17.9,35.1,10.6c16-9.3,16.9-32.3,1.8-42.6c-4.5-3.1-7.8-4.1-13.4-4.4c-3.9-0.1-5.2,0-8.2,0.9c-6.8,2-12.4,6.7-15.4,13l-1.7,3.6l-18.2,0h-18.2l-1.5-3.2c-2.9-6.3-9.2-11.5-16.2-13.6c-3.2-0.9-9.6-1-13.2,0c-6.7,1.8-13.1,7-16.1,13.3l-1.7,3.5h-5.3h-5.3v-14v-14h73.5c72.2,0,73.6,0,75.3-0.9c1.1-0.6,2.2-1.6,2.7-2.7c1.2-2,29.3-99,29.3-100.8c0-2.1-1.9-5.2-3.9-6.3l-1.8-1.1h-87.5H65.2L65,47.8c-0.1-9.9-0.2-10.6-1.2-12.1c-0.6-0.9-1.8-2.1-2.8-2.7c-1.8-1-2.4-1-12.3-1H38.4l-1-1.3C34.4,26.6,28,24.2,22.6,25.1z M228,74.1c0,0.3-5.3,18.6-11.7,40.7L204.7,155l-69.8,0.1l-69.8,0.1v-40.8V73.6h81.4C211.4,73.6,228,73.7,228,74.1z M105.6,197.3c6.3,4.2,5.9,14-0.8,17.4c-5.3,2.7-11.3,0.6-14-4.9c-1.6-3.2-0.5-8.7,2.3-11.3c2.4-2.3,3.8-2.7,7.4-2.6C103.1,196.1,104.1,196.3,105.6,197.3z M189.6,196.7c6.6,3.4,7.6,11.9,2,16.7c-5.5,4.7-14.1,2.2-16.1-4.7c-1.4-4.8,0.8-10.1,5.2-12.1C183.2,195.5,187.4,195.5,189.6,196.7z"/></g></g></g>
</svg>