<?xml version="1.0" encoding="utf-8"?>
<!-- Svg Vector Icons : http://www.onlinewebfonts.com/icon -->
<!DOCTYPE svg PUBLIC "-//W3C//DTD SVG 1.1//EN" "http://www.w3.org/Graphics/SVG/1.1/DTD/svg11.dtd">
<svg version="1.1" xmlns="http://www.w3.org/2000/svg" xmlns:xlink="http://www.w3.org/1999/xlink" x="0px" y="0px" viewBox="0 0 256 256" enable-background="new 0 0 256 256" xml:space="preserve">
<metadata> Svg Vector Icons : http://www.onlinewebfonts.com/icon </metadata>
<g><g><g><path fill="#000000" d="M118.8,10.2c-1,0.1-3.7,0.5-6.1,0.8C79.4,15,48.3,34.4,29.5,62.8C19.7,77.7,14,92.4,11,111c-1.3,7.8-1.3,25.7-0.1,33.9c3.9,25.3,14.6,47,32,65c15.8,16.3,35.1,27.5,56.4,32.8c10.5,2.6,16.9,3.3,28.5,3.3c19.1,0,34.8-3.6,51.7-11.9c12.4-6.1,21.6-12.7,31.6-22.7c9.9-9.9,15.7-18,22.2-30.6c23.1-45.7,13.7-101.3-23.3-137.3c-17.9-17.5-40.1-28.5-65-32.4C140.2,10.4,122.6,9.7,118.8,10.2z M140.5,30c45.6,6,81.1,42.5,85.7,88.3c2,20.6-2.5,41.7-13,59.6c-8.5,14.3-21.1,27-35.5,35.5c-38.5,22.6-87.7,16.4-119.4-15.2c-19-18.9-29.2-43.5-29.2-70c0-28.5,12.1-55.3,33.7-74.3C83.9,35.2,112.6,26.4,140.5,30z"/></g></g></g>
</svg>