<?xml version="1.0" encoding="utf-8"?>
<!-- Svg Vector Icons : http://www.onlinewebfonts.com/icon -->
<!DOCTYPE svg PUBLIC "-//W3C//DTD SVG 1.1//EN" "http://www.w3.org/Graphics/SVG/1.1/DTD/svg11.dtd">
<svg version="1.1" xmlns="http://www.w3.org/2000/svg" xmlns:xlink="http://www.w3.org/1999/xlink" x="0px" y="0px" viewBox="0 0 256 256" enable-background="new 0 0 256 256" xml:space="preserve">
<metadata> Svg Vector Icons : http://www.onlinewebfonts.com/icon </metadata>
<g><g><g><path fill="#000000" d="M118.8,9.8c-27.7,2.6-52.6,13.7-72.2,32.3c-18.7,17.8-30.8,40.3-35.4,65.9c-1.1,5.8-1.2,8.3-1.2,19.7c0,14.2,0.5,18.6,3.3,29.9c5.3,20.8,17.2,41,33.2,56.2c17.7,16.8,39.9,27.7,64.6,31.5c8.2,1.3,25.6,1.3,33.8,0c20.2-3.1,38.6-10.9,54.7-23c20.8-15.7,36.8-39.6,43.1-64.7c3-11.6,3.3-15.2,3.3-29.6c0-14.5-0.4-18-3.3-29.6c-5.3-20.9-17.1-40.9-33.1-56.2c-17.6-16.8-40-27.8-64.4-31.4C140.2,10,123.4,9.4,118.8,9.8z M138.7,29c38.6,4.2,71.7,30.9,83.8,67.6c19.7,59.9-19.9,122.4-82.4,130.2c-56.3,7-107.3-35.1-111.3-92c-3.2-44.7,24.4-86.3,66.8-101c6.1-2.1,15.2-4.3,20.9-4.9C122.3,28.4,132.9,28.4,138.7,29z"/><path fill="#000000" d="M99.3,87.1c-3.1,1.7-3,0.6-3,41.8c0,36.3,0.1,37.6,1,39.2c1.3,2.1,3.8,3.4,5.9,3.1c0.9-0.2,15.1-8,31.5-17.5c37.2-21.5,35.5-20.4,36.2-22c1.1-2.4,0.8-5.2-0.8-6.9c-0.8-0.8-15.9-9.8-33.5-20C102.4,85,102.7,85.2,99.3,87.1z"/></g></g></g>
</svg>